<mxfile host="app.diagrams.net" agent="Mozilla/5.0 (Windows NT 10.0; Win64; x64) AppleWebKit/537.36 (KHTML, like Gecko) Chrome/131.0.0.0 Safari/537.36" version="25.0.3">
  <diagram id="R2lEEEUBdFMjLlhIrx00" name="Page-1">
    <mxGraphModel dx="794" dy="420" grid="1" gridSize="10" guides="1" tooltips="1" connect="1" arrows="1" fold="1" page="1" pageScale="1" pageWidth="850" pageHeight="1100" math="0" shadow="0" extFonts="Permanent Marker^https://fonts.googleapis.com/css?family=Permanent+Marker">
      <root>
        <mxCell id="0" />
        <mxCell id="1" parent="0" />
        <mxCell id="SHbvJ5gVM0S7OGJWBiVW-1" value="employee" style="swimlane;fontStyle=0;childLayout=stackLayout;horizontal=1;startSize=30;horizontalStack=0;resizeParent=1;resizeParentMax=0;resizeLast=0;collapsible=1;marginBottom=0;whiteSpace=wrap;html=1;" vertex="1" parent="1">
          <mxGeometry x="640" y="120" width="140" height="150" as="geometry" />
        </mxCell>
        <mxCell id="SHbvJ5gVM0S7OGJWBiVW-2" value="employee_id" style="text;strokeColor=none;fillColor=none;align=left;verticalAlign=middle;spacingLeft=4;spacingRight=4;overflow=hidden;points=[[0,0.5],[1,0.5]];portConstraint=eastwest;rotatable=0;whiteSpace=wrap;html=1;" vertex="1" parent="SHbvJ5gVM0S7OGJWBiVW-1">
          <mxGeometry y="30" width="140" height="30" as="geometry" />
        </mxCell>
        <mxCell id="SHbvJ5gVM0S7OGJWBiVW-3" value="employee_first_name" style="text;strokeColor=none;fillColor=none;align=left;verticalAlign=middle;spacingLeft=4;spacingRight=4;overflow=hidden;points=[[0,0.5],[1,0.5]];portConstraint=eastwest;rotatable=0;whiteSpace=wrap;html=1;" vertex="1" parent="SHbvJ5gVM0S7OGJWBiVW-1">
          <mxGeometry y="60" width="140" height="30" as="geometry" />
        </mxCell>
        <mxCell id="SHbvJ5gVM0S7OGJWBiVW-4" value="employee_last_name" style="text;strokeColor=none;fillColor=none;align=left;verticalAlign=middle;spacingLeft=4;spacingRight=4;overflow=hidden;points=[[0,0.5],[1,0.5]];portConstraint=eastwest;rotatable=0;whiteSpace=wrap;html=1;" vertex="1" parent="SHbvJ5gVM0S7OGJWBiVW-1">
          <mxGeometry y="90" width="140" height="30" as="geometry" />
        </mxCell>
        <mxCell id="SHbvJ5gVM0S7OGJWBiVW-72" value="employee_role" style="text;strokeColor=none;fillColor=none;align=left;verticalAlign=middle;spacingLeft=4;spacingRight=4;overflow=hidden;points=[[0,0.5],[1,0.5]];portConstraint=eastwest;rotatable=0;whiteSpace=wrap;html=1;" vertex="1" parent="SHbvJ5gVM0S7OGJWBiVW-1">
          <mxGeometry y="120" width="140" height="30" as="geometry" />
        </mxCell>
        <mxCell id="SHbvJ5gVM0S7OGJWBiVW-5" value="my-bookstore" style="text;html=1;align=center;verticalAlign=middle;whiteSpace=wrap;rounded=0;" vertex="1" parent="1">
          <mxGeometry x="440" y="70" width="90" height="30" as="geometry" />
        </mxCell>
        <mxCell id="SHbvJ5gVM0S7OGJWBiVW-6" value="customer" style="swimlane;fontStyle=0;childLayout=stackLayout;horizontal=1;startSize=30;horizontalStack=0;resizeParent=1;resizeParentMax=0;resizeLast=0;collapsible=1;marginBottom=0;whiteSpace=wrap;html=1;" vertex="1" parent="1">
          <mxGeometry x="160" y="320" width="140" height="120" as="geometry" />
        </mxCell>
        <mxCell id="SHbvJ5gVM0S7OGJWBiVW-7" value="customer_id" style="text;strokeColor=none;fillColor=none;align=left;verticalAlign=middle;spacingLeft=4;spacingRight=4;overflow=hidden;points=[[0,0.5],[1,0.5]];portConstraint=eastwest;rotatable=0;whiteSpace=wrap;html=1;" vertex="1" parent="SHbvJ5gVM0S7OGJWBiVW-6">
          <mxGeometry y="30" width="140" height="30" as="geometry" />
        </mxCell>
        <mxCell id="SHbvJ5gVM0S7OGJWBiVW-8" value="first_name" style="text;strokeColor=none;fillColor=none;align=left;verticalAlign=middle;spacingLeft=4;spacingRight=4;overflow=hidden;points=[[0,0.5],[1,0.5]];portConstraint=eastwest;rotatable=0;whiteSpace=wrap;html=1;" vertex="1" parent="SHbvJ5gVM0S7OGJWBiVW-6">
          <mxGeometry y="60" width="140" height="30" as="geometry" />
        </mxCell>
        <mxCell id="SHbvJ5gVM0S7OGJWBiVW-9" value="last_name" style="text;strokeColor=none;fillColor=none;align=left;verticalAlign=middle;spacingLeft=4;spacingRight=4;overflow=hidden;points=[[0,0.5],[1,0.5]];portConstraint=eastwest;rotatable=0;whiteSpace=wrap;html=1;" vertex="1" parent="SHbvJ5gVM0S7OGJWBiVW-6">
          <mxGeometry y="90" width="140" height="30" as="geometry" />
        </mxCell>
        <mxCell id="SHbvJ5gVM0S7OGJWBiVW-10" value="order" style="swimlane;fontStyle=0;childLayout=stackLayout;horizontal=1;startSize=30;horizontalStack=0;resizeParent=1;resizeParentMax=0;resizeLast=0;collapsible=1;marginBottom=0;whiteSpace=wrap;html=1;" vertex="1" parent="1">
          <mxGeometry x="400" y="320" width="140" height="150" as="geometry" />
        </mxCell>
        <mxCell id="SHbvJ5gVM0S7OGJWBiVW-11" value="order_id" style="text;strokeColor=none;fillColor=none;align=left;verticalAlign=middle;spacingLeft=4;spacingRight=4;overflow=hidden;points=[[0,0.5],[1,0.5]];portConstraint=eastwest;rotatable=0;whiteSpace=wrap;html=1;" vertex="1" parent="SHbvJ5gVM0S7OGJWBiVW-10">
          <mxGeometry y="30" width="140" height="30" as="geometry" />
        </mxCell>
        <mxCell id="SHbvJ5gVM0S7OGJWBiVW-12" value="order_status" style="text;strokeColor=none;fillColor=none;align=left;verticalAlign=middle;spacingLeft=4;spacingRight=4;overflow=hidden;points=[[0,0.5],[1,0.5]];portConstraint=eastwest;rotatable=0;whiteSpace=wrap;html=1;" vertex="1" parent="SHbvJ5gVM0S7OGJWBiVW-10">
          <mxGeometry y="60" width="140" height="30" as="geometry" />
        </mxCell>
        <mxCell id="SHbvJ5gVM0S7OGJWBiVW-13" value="payment_method" style="text;strokeColor=none;fillColor=none;align=left;verticalAlign=middle;spacingLeft=4;spacingRight=4;overflow=hidden;points=[[0,0.5],[1,0.5]];portConstraint=eastwest;rotatable=0;whiteSpace=wrap;html=1;" vertex="1" parent="SHbvJ5gVM0S7OGJWBiVW-10">
          <mxGeometry y="90" width="140" height="30" as="geometry" />
        </mxCell>
        <mxCell id="SHbvJ5gVM0S7OGJWBiVW-35" value="customer_id" style="text;strokeColor=none;fillColor=none;align=left;verticalAlign=middle;spacingLeft=4;spacingRight=4;overflow=hidden;points=[[0,0.5],[1,0.5]];portConstraint=eastwest;rotatable=0;whiteSpace=wrap;html=1;" vertex="1" parent="SHbvJ5gVM0S7OGJWBiVW-10">
          <mxGeometry y="120" width="140" height="30" as="geometry" />
        </mxCell>
        <mxCell id="SHbvJ5gVM0S7OGJWBiVW-14" value="sales" style="swimlane;fontStyle=0;childLayout=stackLayout;horizontal=1;startSize=30;horizontalStack=0;resizeParent=1;resizeParentMax=0;resizeLast=0;collapsible=1;marginBottom=0;whiteSpace=wrap;html=1;" vertex="1" parent="1">
          <mxGeometry x="640" y="320" width="140" height="210" as="geometry" />
        </mxCell>
        <mxCell id="SHbvJ5gVM0S7OGJWBiVW-15" value="sales_id" style="text;strokeColor=none;fillColor=none;align=left;verticalAlign=middle;spacingLeft=4;spacingRight=4;overflow=hidden;points=[[0,0.5],[1,0.5]];portConstraint=eastwest;rotatable=0;whiteSpace=wrap;html=1;" vertex="1" parent="SHbvJ5gVM0S7OGJWBiVW-14">
          <mxGeometry y="30" width="140" height="30" as="geometry" />
        </mxCell>
        <mxCell id="SHbvJ5gVM0S7OGJWBiVW-16" value="sale_qty" style="text;strokeColor=none;fillColor=none;align=left;verticalAlign=middle;spacingLeft=4;spacingRight=4;overflow=hidden;points=[[0,0.5],[1,0.5]];portConstraint=eastwest;rotatable=0;whiteSpace=wrap;html=1;" vertex="1" parent="SHbvJ5gVM0S7OGJWBiVW-14">
          <mxGeometry y="60" width="140" height="30" as="geometry" />
        </mxCell>
        <mxCell id="SHbvJ5gVM0S7OGJWBiVW-17" value="sales_value" style="text;strokeColor=none;fillColor=none;align=left;verticalAlign=middle;spacingLeft=4;spacingRight=4;overflow=hidden;points=[[0,0.5],[1,0.5]];portConstraint=eastwest;rotatable=0;whiteSpace=wrap;html=1;" vertex="1" parent="SHbvJ5gVM0S7OGJWBiVW-14">
          <mxGeometry y="90" width="140" height="30" as="geometry" />
        </mxCell>
        <mxCell id="SHbvJ5gVM0S7OGJWBiVW-45" value="employee_id" style="text;strokeColor=none;fillColor=none;align=left;verticalAlign=middle;spacingLeft=4;spacingRight=4;overflow=hidden;points=[[0,0.5],[1,0.5]];portConstraint=eastwest;rotatable=0;whiteSpace=wrap;html=1;" vertex="1" parent="SHbvJ5gVM0S7OGJWBiVW-14">
          <mxGeometry y="120" width="140" height="30" as="geometry" />
        </mxCell>
        <mxCell id="SHbvJ5gVM0S7OGJWBiVW-47" value="book_id" style="text;strokeColor=none;fillColor=none;align=left;verticalAlign=middle;spacingLeft=4;spacingRight=4;overflow=hidden;points=[[0,0.5],[1,0.5]];portConstraint=eastwest;rotatable=0;whiteSpace=wrap;html=1;" vertex="1" parent="SHbvJ5gVM0S7OGJWBiVW-14">
          <mxGeometry y="150" width="140" height="30" as="geometry" />
        </mxCell>
        <mxCell id="SHbvJ5gVM0S7OGJWBiVW-48" value="order_id" style="text;strokeColor=none;fillColor=none;align=left;verticalAlign=middle;spacingLeft=4;spacingRight=4;overflow=hidden;points=[[0,0.5],[1,0.5]];portConstraint=eastwest;rotatable=0;whiteSpace=wrap;html=1;" vertex="1" parent="SHbvJ5gVM0S7OGJWBiVW-14">
          <mxGeometry y="180" width="140" height="30" as="geometry" />
        </mxCell>
        <mxCell id="SHbvJ5gVM0S7OGJWBiVW-18" value="book" style="swimlane;fontStyle=0;childLayout=stackLayout;horizontal=1;startSize=30;horizontalStack=0;resizeParent=1;resizeParentMax=0;resizeLast=0;collapsible=1;marginBottom=0;whiteSpace=wrap;html=1;" vertex="1" parent="1">
          <mxGeometry x="400" y="570" width="140" height="180" as="geometry" />
        </mxCell>
        <mxCell id="SHbvJ5gVM0S7OGJWBiVW-19" value="book_id" style="text;strokeColor=none;fillColor=none;align=left;verticalAlign=middle;spacingLeft=4;spacingRight=4;overflow=hidden;points=[[0,0.5],[1,0.5]];portConstraint=eastwest;rotatable=0;whiteSpace=wrap;html=1;" vertex="1" parent="SHbvJ5gVM0S7OGJWBiVW-18">
          <mxGeometry y="30" width="140" height="30" as="geometry" />
        </mxCell>
        <mxCell id="SHbvJ5gVM0S7OGJWBiVW-20" value="book_name" style="text;strokeColor=none;fillColor=none;align=left;verticalAlign=middle;spacingLeft=4;spacingRight=4;overflow=hidden;points=[[0,0.5],[1,0.5]];portConstraint=eastwest;rotatable=0;whiteSpace=wrap;html=1;" vertex="1" parent="SHbvJ5gVM0S7OGJWBiVW-18">
          <mxGeometry y="60" width="140" height="30" as="geometry" />
        </mxCell>
        <mxCell id="SHbvJ5gVM0S7OGJWBiVW-21" value="book_author" style="text;strokeColor=none;fillColor=none;align=left;verticalAlign=middle;spacingLeft=4;spacingRight=4;overflow=hidden;points=[[0,0.5],[1,0.5]];portConstraint=eastwest;rotatable=0;whiteSpace=wrap;html=1;" vertex="1" parent="SHbvJ5gVM0S7OGJWBiVW-18">
          <mxGeometry y="90" width="140" height="30" as="geometry" />
        </mxCell>
        <mxCell id="SHbvJ5gVM0S7OGJWBiVW-70" value="book_price" style="text;strokeColor=none;fillColor=none;align=left;verticalAlign=middle;spacingLeft=4;spacingRight=4;overflow=hidden;points=[[0,0.5],[1,0.5]];portConstraint=eastwest;rotatable=0;whiteSpace=wrap;html=1;" vertex="1" parent="SHbvJ5gVM0S7OGJWBiVW-18">
          <mxGeometry y="120" width="140" height="30" as="geometry" />
        </mxCell>
        <mxCell id="SHbvJ5gVM0S7OGJWBiVW-71" value="book_stock_qty" style="text;strokeColor=none;fillColor=none;align=left;verticalAlign=middle;spacingLeft=4;spacingRight=4;overflow=hidden;points=[[0,0.5],[1,0.5]];portConstraint=eastwest;rotatable=0;whiteSpace=wrap;html=1;" vertex="1" parent="SHbvJ5gVM0S7OGJWBiVW-18">
          <mxGeometry y="150" width="140" height="30" as="geometry" />
        </mxCell>
        <mxCell id="SHbvJ5gVM0S7OGJWBiVW-26" style="edgeStyle=orthogonalEdgeStyle;rounded=0;orthogonalLoop=1;jettySize=auto;html=1;exitX=1;exitY=0.5;exitDx=0;exitDy=0;entryX=0;entryY=0.5;entryDx=0;entryDy=0;" edge="1" parent="1" source="SHbvJ5gVM0S7OGJWBiVW-7" target="SHbvJ5gVM0S7OGJWBiVW-35">
          <mxGeometry relative="1" as="geometry" />
        </mxCell>
        <mxCell id="SHbvJ5gVM0S7OGJWBiVW-28" value="&lt;font style=&quot;font-size: 14px;&quot;&gt;1&lt;/font&gt;" style="text;html=1;align=center;verticalAlign=middle;whiteSpace=wrap;rounded=0;" vertex="1" parent="1">
          <mxGeometry x="300" y="350" width="30" height="10" as="geometry" />
        </mxCell>
        <mxCell id="SHbvJ5gVM0S7OGJWBiVW-29" value="&lt;span style=&quot;color: rgb(34, 34, 34); font-family: &amp;quot;Times New Roman&amp;quot;; text-align: start;&quot;&gt;&lt;font style=&quot;font-size: 14px;&quot;&gt;∞&lt;/font&gt;&lt;/span&gt;" style="text;html=1;align=center;verticalAlign=middle;whiteSpace=wrap;rounded=0;" vertex="1" parent="1">
          <mxGeometry x="360" y="430" width="50" height="20" as="geometry" />
        </mxCell>
        <mxCell id="SHbvJ5gVM0S7OGJWBiVW-49" style="edgeStyle=orthogonalEdgeStyle;rounded=0;orthogonalLoop=1;jettySize=auto;html=1;exitX=1;exitY=0.5;exitDx=0;exitDy=0;" edge="1" parent="1" source="SHbvJ5gVM0S7OGJWBiVW-11" target="SHbvJ5gVM0S7OGJWBiVW-48">
          <mxGeometry relative="1" as="geometry" />
        </mxCell>
        <mxCell id="SHbvJ5gVM0S7OGJWBiVW-50" value="&lt;font style=&quot;font-size: 14px;&quot;&gt;1&lt;/font&gt;" style="text;html=1;align=center;verticalAlign=middle;whiteSpace=wrap;rounded=0;" vertex="1" parent="1">
          <mxGeometry x="540" y="350" width="30" height="10" as="geometry" />
        </mxCell>
        <mxCell id="SHbvJ5gVM0S7OGJWBiVW-51" value="&lt;span style=&quot;color: rgb(34, 34, 34); font-family: &amp;quot;Times New Roman&amp;quot;; font-size: 14px; text-align: start;&quot;&gt;∞&lt;/span&gt;" style="text;html=1;align=center;verticalAlign=middle;whiteSpace=wrap;rounded=0;" vertex="1" parent="1">
          <mxGeometry x="600" y="500" width="30" height="10" as="geometry" />
        </mxCell>
        <mxCell id="SHbvJ5gVM0S7OGJWBiVW-56" style="edgeStyle=orthogonalEdgeStyle;rounded=0;orthogonalLoop=1;jettySize=auto;html=1;exitX=1;exitY=0.5;exitDx=0;exitDy=0;entryX=1;entryY=0.5;entryDx=0;entryDy=0;" edge="1" parent="1" source="SHbvJ5gVM0S7OGJWBiVW-19" target="SHbvJ5gVM0S7OGJWBiVW-47">
          <mxGeometry relative="1" as="geometry">
            <mxPoint x="810" y="470" as="targetPoint" />
          </mxGeometry>
        </mxCell>
        <mxCell id="SHbvJ5gVM0S7OGJWBiVW-57" value="&lt;font style=&quot;font-size: 14px;&quot;&gt;1&lt;/font&gt;" style="text;html=1;align=center;verticalAlign=middle;whiteSpace=wrap;rounded=0;" vertex="1" parent="1">
          <mxGeometry x="550" y="600" width="30" height="10" as="geometry" />
        </mxCell>
        <mxCell id="SHbvJ5gVM0S7OGJWBiVW-59" value="&lt;span style=&quot;color: rgb(34, 34, 34); font-family: &amp;quot;Times New Roman&amp;quot;; font-size: 14px; text-align: start;&quot;&gt;∞&lt;/span&gt;" style="text;html=1;align=center;verticalAlign=middle;whiteSpace=wrap;rounded=0;" vertex="1" parent="1">
          <mxGeometry x="790" y="470" width="30" height="10" as="geometry" />
        </mxCell>
        <mxCell id="SHbvJ5gVM0S7OGJWBiVW-64" style="edgeStyle=orthogonalEdgeStyle;rounded=0;orthogonalLoop=1;jettySize=auto;html=1;exitX=1;exitY=0.5;exitDx=0;exitDy=0;entryX=1;entryY=0.5;entryDx=0;entryDy=0;" edge="1" parent="1" source="SHbvJ5gVM0S7OGJWBiVW-2" target="SHbvJ5gVM0S7OGJWBiVW-45">
          <mxGeometry relative="1" as="geometry" />
        </mxCell>
        <mxCell id="SHbvJ5gVM0S7OGJWBiVW-65" value="&lt;font style=&quot;font-size: 14px;&quot;&gt;1&lt;/font&gt;" style="text;html=1;align=center;verticalAlign=middle;whiteSpace=wrap;rounded=0;" vertex="1" parent="1">
          <mxGeometry x="790" y="176" width="30" height="10" as="geometry" />
        </mxCell>
        <mxCell id="SHbvJ5gVM0S7OGJWBiVW-66" value="&lt;span style=&quot;color: rgb(34, 34, 34); font-family: &amp;quot;Times New Roman&amp;quot;; font-size: 14px; text-align: start;&quot;&gt;∞&lt;/span&gt;" style="text;html=1;align=center;verticalAlign=middle;whiteSpace=wrap;rounded=0;" vertex="1" parent="1">
          <mxGeometry x="800" y="430" width="30" height="40" as="geometry" />
        </mxCell>
      </root>
    </mxGraphModel>
  </diagram>
</mxfile>
